# xmcd
#
# Track frame offsets:
# 150
# 18295
# 33882
# 50025
# 65769
# 76193
# 89162
# 103742
# 127171
# 142380
# 165952
# 187910
# 202329
# 212677
# 227698
#
# Disc length: 3256 seconds
#
# Revision: 0
# Processed by: cddbd v1.5.2PL0 Copyright (c) Steve Scherf et al.
# Submitted via: Axialis_AX_CDPlayer 2.6
#
DISCID=dc0cb60f
DTITLE=Steve Earle - Townes (Limited Edition) [CD1 of 2)
DYEAR=1900
DGENRE=
TTITLE0=Pancho and Lefty
TTITLE1=White Freightliner Blues
TTITLE2=Colorado Girl
TTITLE3=Where I Lead Me
TTITLE4=Lungs 2:18
TTITLE5=No Place To Fall
TTITLE6=Loretta
TTITLE7=Brand New Companion
TTITLE8=Rake
TTITLE9=Delta Momma Blues
TTITLE10=Marie
TTITLE11=Don't Take It Too Bad
TTITLE12=Mr. Mudd and Mr. Gold
TTITLE13=(Quicksilver Daydreams Of) Maria
TTITLE14=To Live Is To Fly
EXTD=www.steveearle.net
EXTT0=
EXTT1=
EXTT2=
EXTT3=
EXTT4=
EXTT5=
EXTT6=
EXTT7=
EXTT8=
EXTT9=
EXTT10=
EXTT11=
EXTT12=
EXTT13=
EXTT14=
PLAYORDER=
